<svg xmlns="http://www.w3.org/2000/svg" height="3" width="155.4" viewBox="0 0 155.4 3"><path fill="#F2E4C2" d="M0-1l-9.7 4H9.7l9.7-4"/><path fill="#EAB973" d="M19.4-1L9.7 3h19.4l9.7-4"/><path fill="#CE4129" d="M58.3-1H38.8l-9.7 4H68"/><path fill="#AF1E3A" d="M77.7-1H58.3L68 3h19.4l9.7-4"/><path fill="#541439" d="M116.5-1H97.1l-9.7 4h38.8"/><path fill="#426768" d="M135.9-1h-19.4l9.7 4h19.5l9.7-4"/><path fill="#F2E4C2" d="M165.1 3h-19.4l9.7-4"/><g><path fill="#EDD89D" d="M19.4-1H0l9.7 4"/><path fill="#EDD172" d="M29.1 3H9.7l9.7-4"/><path fill="#F2E4C2" d="M9.7 3H-9.7L0-1"/><path fill="#EAB973" d="M38.8-1H19.4l9.7 4"/><path fill="#D8723F" d="M48.6 3H29.1l9.7-4"/><path fill="#DB5A3D" d="M58.3-1H38.8l9.8 4"/><path fill="#CE4129" d="M68 3H48.6l9.7-4"/><path fill="#C4334F" d="M77.7-1H58.3L68 3"/><path fill="#C2263F" d="M87.4 3H68l9.7-4"/><path fill="#AF1E3A" d="M97.1-1H77.7l9.7 4"/><path fill="#773955" d="M106.8 3H87.4l9.7-4"/><path fill="#632840" d="M116.5-1H97.1l9.7 4"/><path fill="#541439" d="M126.2 3h-19.4l9.7-4"/><path fill="#648C8A" d="M135.9-1h-19.4l9.7 4"/><path fill="#52777A" d="M145.7 3h-19.5l9.7-4"/><path fill="#426768" d="M155.4-1h-19.5l9.8 4"/><path fill="#F2E4C2" d="M165.1 3h-19.4l9.7-4"/></g><g><path fill="#fff" d="M0 2h165v1H0z"/></g></svg>